# xmcd
#
# Track frame offsets: 
#        150
#        20541
#        41216
#        61176
#        77421
#
# Disc length: 1304 seconds
#
# Revision: 0
# Processed by: cddbd v1.4PL0 Copyright (c) Steve Scherf et al.
# Submitted via: ExactAudioCopy v0.90b3
#
DISCID=34051605
DTITLE=Lionel Cartwright - Signature Series Vol. I
DYEAR=1900
DGENRE=Country
TTITLE0=Leap Of Faith
TTITLE1=Perfect Stranger
TTITLE2=In My Eyes
TTITLE3=Little White Lies
TTITLE4=My Place Is Here With You
EXTD=
EXTT0=
EXTT1=
EXTT2=
EXTT3=
EXTT4=
PLAYORDER=
